<svg width="70" height="63" xmlns="http://www.w3.org/2000/svg" xmlns:xlink="http://www.w3.org/1999/xlink" overflow="hidden"><g transform="translate(1 -295)"><path d="M31.7625 304.634C34.5489 309.688 30.274 314.339 27.8312 316.28 25.3882 318.221 23.747 320.235 23.2508 321.407 20.7698 327.194 24.4722 332.724 26.9914 334.042 25.8463 331.552 24.7775 326.791 29.2816 322.323 29.2816 322.323 27.9837 327.084 30.8083 330.38 33.6329 333.676 33.5946 336.13 33.5946 336.13 37.9841 336.13 42.1447 333.603 43.9004 329.464 45.2363 327.011 45.3508 323.129 43.557 320.858 44.244 323.531 41.3812 326.168 38.5566 325.069 36.1901 324.264 35.2741 321.627 36.9154 319.356 40.6178 314.632 37.9078 307.197 31.7625 304.634ZM3.4 295 64.6 295C66.5001 295 68 296.6 68 298.5L68 339.8C68 341.6 66.5001 343.2 64.6 343.2L54.4 343.2 54.4 357 40.8 343.1 3.4 343.1C1.50005 343.1 0 341.6 0 339.7L0 298.4C0 296.6 1.50005 295 3.4 295Z" fill="#919ACA" fill-rule="evenodd"/></g></svg>