<svg width="69" height="64" xmlns="http://www.w3.org/2000/svg" xmlns:xlink="http://www.w3.org/1999/xlink" overflow="hidden"><g transform="translate(-86 -297)"><path d="M118.763 307.634C121.549 312.688 117.274 317.339 114.831 319.28 112.388 321.221 110.747 323.235 110.251 324.407 107.77 330.194 111.472 335.724 113.991 337.042 112.846 334.552 111.778 329.791 116.282 325.323 116.282 325.323 114.984 330.084 117.808 333.38 120.633 336.676 120.595 339.13 120.595 339.13 124.984 339.13 129.145 336.603 130.9 332.464 132.236 330.011 132.351 326.129 130.557 323.858 131.244 326.531 128.381 329.168 125.557 328.069 123.19 327.264 122.274 324.627 123.915 322.356 127.618 317.632 124.908 310.197 118.763 307.634ZM90.4 298 151.6 298C153.5 298 155 299.6 155 301.5L155 342.8C155 344.6 153.5 346.2 151.6 346.2L141.4 346.2 141.4 360 127.8 346.1 90.4 346.1C88.5001 346.1 87 344.6 87 342.7L87 301.4C87 299.6 88.5001 298 90.4 298Z" fill="#E0144C" fill-rule="evenodd"/></g></svg>