<svg width="69" height="63" xmlns="http://www.w3.org/2000/svg" xmlns:xlink="http://www.w3.org/1999/xlink" overflow="hidden"><g transform="translate(-241 -295)"><path d="M273.763 304.634C276.549 309.688 272.274 314.339 269.831 316.28 267.388 318.221 265.747 320.235 265.251 321.407 262.77 327.194 266.472 332.724 268.991 334.042 267.846 331.552 266.778 326.791 271.282 322.323 271.282 322.323 269.984 327.084 272.808 330.38 275.633 333.676 275.595 336.13 275.595 336.13 279.984 336.13 284.145 333.603 285.9 329.464 287.236 327.011 287.351 323.129 285.557 320.858 286.244 323.531 283.381 326.168 280.557 325.069 278.19 324.264 277.274 321.627 278.915 319.356 282.618 314.632 279.908 307.197 273.763 304.634ZM245.4 295 306.6 295C308.5 295 310 296.6 310 298.5L310 339.8C310 341.6 308.5 343.2 306.6 343.2L296.4 343.2 296.4 357 282.8 343.1 245.4 343.1C243.5 343.1 242 341.6 242 339.7L242 298.4C242 296.6 243.5 295 245.4 295Z" fill="#FFFFFF" fill-rule="evenodd"/></g></svg>